# xmcd
#
# Track frame offsets: 
#        150
#        17940
#        39943
#        59508
#        82068
#        97565
#        112835
#        138450
#        158345
#        181223
#
# Disc length: 2659 seconds
#
# Revision: 2
# Processed by: cddbd v1.5.1PL2 Copyright (c) Steve Scherf et al.
# Submitted via: ExactAudioCopy v0.95a5
#
DISCID=6e0a610a
DTITLE=Pops Staples - Peace To The Neighborhood
DYEAR=1992
DGENRE=
TTITLE0=World In Motion
TTITLE1=Love Is A Precious Things
TTITLE2=America
TTITLE3=Down In Mississippi
TTITLE4=This May Be The Last Time
TTITLE5=(Peace To) The Neighborhood
TTITLE6=Miss Cocaine
TTITLE7=Pray On My Child
TTITLE8=Pray
TTITLE9=I Shall Not Be Moved
EXTD=
EXTT0=
EXTT1=
EXTT2=
EXTT3=
EXTT4=
EXTT5=
EXTT6=
EXTT7=
EXTT8=
EXTT9=
PLAYORDER=
